<svg xmlns="http://www.w3.org/2000/svg" width="8.213" height="6.299" viewBox="0 0 8.213 6.299"><defs><style>.a{fill:#fff;}</style></defs><path class="a" d="M2.969,6.3a1.038,1.038,0,0,0,.41-.083,1.07,1.07,0,0,0,.342-.229L7.91,1.8a1.007,1.007,0,0,0,.225-.342,1.069,1.069,0,0,0,.078-.4A1.038,1.038,0,0,0,8.13.645,1.032,1.032,0,0,0,7.568.083,1.038,1.038,0,0,0,7.158,0a1.107,1.107,0,0,0-.405.078A1,1,0,0,0,6.406.3L2.969,3.74,1.816,2.588a1.025,1.025,0,0,0-.752-.313,1.038,1.038,0,0,0-.41.083,1.07,1.07,0,0,0-.342.229,1.086,1.086,0,0,0-.229.337A1,1,0,0,0,0,3.33a1.05,1.05,0,0,0,.083.405,1.057,1.057,0,0,0,.229.347l1.9,1.9a1.09,1.09,0,0,0,.752.313Z"/></svg>