<svg xmlns="http://www.w3.org/2000/svg" width="100%" height="100%" viewBox="0 0 43.158 35.675">
  <g id="Group_30" data-name="Group 30" transform="translate(1677 -919.325)">
    <path id="Path_575" data-name="Path 575" d="M41.584,7.024C41.286,6.556,36.857,0,29.178,0H12.758A9.629,9.629,0,0,0,3.13,9.627V27.643c0,.532-.827.236-.827.236a2.539,2.539,0,0,0-.709-.119A1.589,1.589,0,0,0,0,29.355c0,1.9,2.953,2.658,4.135,2.658a5.4,5.4,0,0,0,1-.059,9.747,9.747,0,0,0,7.62,3.721h16.36a9.629,9.629,0,0,0,9.628-9.627V16.184s2.007-2.54,2.244-2.776h0S42.585,11.223,43,10.4s.059-1.182-1.418-3.367" transform="translate(-1677 919.325)" fill="#fff"/>
    <path id="Path_576" data-name="Path 576" d="M32.77,28.059a3.552,3.552,0,0,0,1.182.177c1.771,0,2.54-.709,2.54-1.535,0-.945-1.3-.945-1.418-1.831-.177-1.064-.059-5.788,1.771-8.387l1.241.532a1.923,1.923,0,0,0,.768.177,1.115,1.115,0,0,0,.827-.414,23.893,23.893,0,0,0,3.192-4.37c.177-.3-2.421-3.544-3.84-4.666a5.909,5.909,0,0,0-3.6-1.243A5.7,5.7,0,0,0,30,10.34a27.593,27.593,0,0,1-8.151,3.9c-3.958,1.064-8.032.059-10.749.236a5.6,5.6,0,0,0-5.611,5.788c.059,3.071,2.185,5.847,2.185,8.742A3.162,3.162,0,0,1,4.54,32.253c-1.535,0-1.594-.591-2.067-.591A.378.378,0,0,0,2,32.016c0,.768,1.9,1.477,2.953,1.477a4.682,4.682,0,0,0,4.013-2.007,3.53,3.53,0,0,0,3.544,2.067c2.244,0,3.19-1.064,3.19-1.949,0-.709-.414-1-.768-1.477a2.138,2.138,0,0,1-.414-1.359,10.531,10.531,0,0,0,1.182.059c1.594,0,2.126-.65,2.126-1.3,0-.827-.945-.768-.945-2.126,0-1.064.591-1.359,1.064-1.359.532,0,2.6.177,5.138.473.827.059,2.9.886,2.9,4.135v1.182c0,1.949.768,4.43,4.312,4.43,2.362,0,3.721-1.3,3.721-2.3,0-.65-.532-.886-.827-1.3a3.051,3.051,0,0,1-.414-2.6" transform="translate(-1677.818 916.664)" fill="#f26724"/>
    <path id="Path_577" data-name="Path 577" d="M63.514,19.1a.414.414,0,1,0,.414.414.4.4,0,0,0-.414-.414" transform="translate(-1702.831 911.506)" fill="#fff"/>
    <path id="Path_578" data-name="Path 578" d="M65.955,17a.355.355,0,1,0,.355.355A.34.34,0,0,0,65.955,17" transform="translate(-1703.853 912.366)" fill="#fff"/>
    <path id="Path_579" data-name="Path 579" d="M67.2,14.7a.3.3,0,1,0,.3.3.317.317,0,0,0-.3-.3" transform="translate(-1704.385 913.307)" fill="#fff"/>
    <path id="Path_580" data-name="Path 580" d="M47.073,17.345a.473.473,0,1,0-.473-.473c.059.3.236.473.473.473" transform="translate(-1696.075 912.612)" fill="#fff"/>
    <path id="Path_581" data-name="Path 581" d="M50.014,36.2a.421.421,0,0,0-.414.473.456.456,0,0,0,.414.473.466.466,0,0,0,.473-.473c-.059-.236-.236-.473-.473-.473" transform="translate(-1697.304 904.507)" fill="#fff"/>
    <path id="Path_582" data-name="Path 582" d="M54.473,37a.473.473,0,1,0,.473.473c-.059-.3-.236-.473-.473-.473" transform="translate(-1699.105 904.179)" fill="#fff"/>
    <path id="Path_583" data-name="Path 583" d="M50.573,29.4a.473.473,0,0,0,0,.945.435.435,0,0,0,.473-.473.466.466,0,0,0-.473-.473" transform="translate(-1697.509 907.29)" fill="#fff"/>
    <path id="Path_584" data-name="Path 584" d="M53.206,23.645a.477.477,0,1,0-.412-.473.473.473,0,0,0,.412.473" transform="translate(-1698.606 910.033)" fill="#fff"/>
    <path id="Path_585" data-name="Path 585" d="M41.373,20.545a.473.473,0,1,0-.473-.473c.059.3.236.473.473.473" transform="translate(-1693.742 911.301)" fill="#fff"/>
    <path id="Path_586" data-name="Path 586" d="M45.673,34.7a.473.473,0,1,0,.473.473c-.059-.3-.236-.473-.473-.473" transform="translate(-1695.503 905.12)" fill="#fff"/>
    <path id="Path_587" data-name="Path 587" d="M43.573,24.245a.421.421,0,0,0,.414-.473.456.456,0,0,0-.414-.473.473.473,0,1,0,0,.945" transform="translate(-1694.644 909.786)" fill="#fff"/>
    <path id="Path_588" data-name="Path 588" d="M38.773,29.2a.473.473,0,1,0,.473.473.508.508,0,0,0-.473-.473" transform="translate(-1692.679 907.372)" fill="#fff"/>
    <path id="Path_589" data-name="Path 589" d="M46.573,27.745a.473.473,0,1,0-.473-.473c.059.3.236.473.473.473" transform="translate(-1695.871 908.355)" fill="#fff"/>
    <path id="Path_590" data-name="Path 590" d="M34.673,21.7a.473.473,0,1,0,.473.473.466.466,0,0,0-.473-.473" transform="translate(-1691 910.442)" fill="#fff"/>
    <path id="Path_591" data-name="Path 591" d="M36.373,25.6a.473.473,0,1,0,.473.473c-.059-.3-.236-.473-.473-.473" transform="translate(-1691.696 908.846)" fill="#fff"/>
    <path id="Path_592" data-name="Path 592" d="M41.873,32.1a.473.473,0,1,0,.473.473c-.059-.236-.236-.473-.473-.473" transform="translate(-1693.947 906.185)" fill="#fff"/>
    <path id="Path_593" data-name="Path 593" d="M49.573,20.845a.473.473,0,1,0-.473-.473c.059.3.236.473.473.473" transform="translate(-1697.099 911.179)" fill="#fff"/>
    <path id="Path_594" data-name="Path 594" d="M55.073,30.8a.473.473,0,1,0,.473.473.466.466,0,0,0-.473-.473" transform="translate(-1699.351 906.717)" fill="#fff"/>
    <path id="Path_595" data-name="Path 595" d="M56.973,24.7a.473.473,0,0,0,0,.945.435.435,0,0,0,.473-.473.466.466,0,0,0-.473-.473" transform="translate(-1700.128 909.214)" fill="#fff"/>
    <path id="Path_596" data-name="Path 596" d="M56.473,18.5a.473.473,0,1,0,.473.473.435.435,0,0,0-.473-.473" transform="translate(-1699.924 911.751)" fill="#fff"/>
    <path id="Path_597" data-name="Path 597" d="M60.073,19.6a.473.473,0,1,0,.473.473.508.508,0,0,0-.473-.473" transform="translate(-1701.398 911.301)" fill="#fff"/>
    <path id="Path_598" data-name="Path 598" d="M53.873,16.2a.473.473,0,1,0,.473.473c-.059-.3-.236-.473-.473-.473" transform="translate(-1698.86 912.694)" fill="#fff"/>
    <path id="Path_599" data-name="Path 599" d="M52.373,13.3a.473.473,0,1,0,.473.473c-.059-.236-.236-.473-.473-.473" transform="translate(-1698.245 913.88)" fill="#fff"/>
    <path id="Path_600" data-name="Path 600" d="M55.473,13.3a.473.473,0,1,0,.473.473.508.508,0,0,0-.473-.473" transform="translate(-1699.514 913.88)" fill="#fff"/>
    <path id="Path_601" data-name="Path 601" d="M52.2,11.055a.381.381,0,0,1,.355-.355.34.34,0,0,1,.355.355.355.355,0,0,1-.709,0" transform="translate(-1698.368 914.945)" fill="#fff"/>
    <path id="Path_602" data-name="Path 602" d="M54.1,8.8a.3.3,0,1,1,.3.3.317.317,0,0,1-.3-.3" transform="translate(-1699.146 915.845)" fill="#fff"/>
    <path id="Path_603" data-name="Path 603" d="M56.5,7.736a.236.236,0,1,1,.236.236.254.254,0,0,1-.236-.236" transform="translate(-1700.128 916.255)" fill="#fff"/>
    <path id="Path_604" data-name="Path 604" d="M66.9,12.936a.236.236,0,1,1,.236.236.254.254,0,0,1-.236-.236" transform="translate(-1704.385 914.126)" fill="#fff"/>
    <path id="Path_605" data-name="Path 605" d="M66.3,20.436a.236.236,0,1,1,.236.236c-.059,0-.177-.118-.236-.236" transform="translate(-1704.14 911.056)" fill="#fff"/>
    <path id="Path_606" data-name="Path 606" d="M67.4,19.036a.236.236,0,1,1,.236.236.254.254,0,0,1-.236-.236" transform="translate(-1704.59 911.629)" fill="#fff"/>
    <path id="Path_607" data-name="Path 607" d="M65.2,21.936a.236.236,0,1,1,.236.236.254.254,0,0,1-.236-.236" transform="translate(-1703.69 910.442)" fill="#fff"/>
    <path id="Path_608" data-name="Path 608" d="M63.9,23.236a.236.236,0,1,1,.236.236c-.118,0-.177-.118-.236-.236" transform="translate(-1703.158 909.909)" fill="#fff"/>
    <path id="Path_609" data-name="Path 609" d="M68.4,17.536a.236.236,0,1,1,.236.236.254.254,0,0,1-.236-.236" transform="translate(-1705 912.244)" fill="#fff"/>
    <path id="Path_610" data-name="Path 610" d="M69.1,16.236a.236.236,0,1,1,.236.236c-.118,0-.177-.059-.236-.236" transform="translate(-1705.286 912.775)" fill="#fff"/>
    <path id="Path_611" data-name="Path 611" d="M20.787,42.192a7.153,7.153,0,0,1-.532-5.67c1.241-3.19,4.843-2.776,4.843-2.776a4.15,4.15,0,0,0-1.9-.355,4.724,4.724,0,0,0-4.3,5.079,5.437,5.437,0,0,0,1.9,3.721" transform="translate(-1684.734 905.661)" fill="#fff"/>
    <path id="Path_612" data-name="Path 612" d="M11.223,28.546A3.791,3.791,0,0,1,10.1,25.829a3.909,3.909,0,0,1,3.84-3.84c2.185-.118,6.2.532,8.8.177.886,3.958,3.84,6.734,6.02,8.505-2.658-1.182-5.316-4.312-8.387-6.02-3.19-1.771-6.438-2.067-8.151-.473a4.413,4.413,0,0,0-1,4.371" transform="translate(-1681.134 910.329)" fill="#fff"/>
    <path id="Path_613" data-name="Path 613" d="M26.1,39.9c.177,1.123-1.9,1.535-1.9,1.535,1.9.355,2.481-.65,2.481-.65a4.509,4.509,0,0,0-.591-.886" transform="translate(-1686.906 902.992)" fill="#fff"/>
    <path id="Path_614" data-name="Path 614" d="M50.94,40.9h0s-1.241,1.712-.355,4.905A6.378,6.378,0,0,1,48.4,46.921s2.835.355,3.721-1.123c-1.771-1.359-1.241-4.666-1.182-4.905" transform="translate(-1696.813 902.582)" fill="#fff"/>
    <path id="Path_615" data-name="Path 615" d="M60.584,10.28a1.881,1.881,0,0,0-2.3,1.3,1.835,1.835,0,0,0,1.712,2.007,1.881,1.881,0,0,0,2.3-1.3,1.835,1.835,0,0,0-1.712-2.007M62,12.229a1.371,1.371,0,0,1-1.653.945,1.3,1.3,0,0,1-1.182-1.418,1.371,1.371,0,0,1,1.653-.945A1.3,1.3,0,0,1,62,12.229" transform="translate(-1700.845 915.129)" fill="#fff"/>
    <path id="Path_616" data-name="Path 616" d="M62.094,12.726a.761.761,0,0,1,.886-.532.713.713,0,0,1,.65.768.761.761,0,0,1-.886.532.714.714,0,0,1-.65-.768" transform="translate(-1702.415 914.337)" fill="#fff"/>
    <path id="Path_617" data-name="Path 617" d="M57.176,38.3h0c.65,1.241-1.477,1.712-1.477,1.712,1.535.236,2.362-.65,2.362-1.064a3.824,3.824,0,0,1-.886-.65" transform="translate(-1699.801 903.646)" fill="#fff"/>
    <path id="Path_618" data-name="Path 618" d="M35.464,31.318s.3.355.768.827a18.954,18.954,0,0,0,1.9,1.594,14.446,14.446,0,0,0,2.067,1.3,3.884,3.884,0,0,0,.709.355,2.483,2.483,0,0,1,.3.118,2.482,2.482,0,0,0-.3-.118,4.06,4.06,0,0,1-.768-.355A17.742,17.742,0,0,1,37.951,33.8,14.978,14.978,0,0,1,36,32.264a8.664,8.664,0,0,1-.827-.827.179.179,0,0,1,0-.236.446.446,0,0,1,.3.118h0" transform="translate(-1691.378 906.553)" fill="#fff"/>
    <path id="Path_619" data-name="Path 619" d="M61.554,10.524a3.191,3.191,0,0,0-5.375-.236.5.5,0,1,1-.767-.65A3.613,3.613,0,0,1,58.188,8.4a3.568,3.568,0,0,1,3.367,2.126" transform="translate(-1699.63 915.889)" fill="#fff"/>
    <path id="Path_620" data-name="Path 620" d="M55.514,19.705a7.77,7.77,0,0,1-3.958-1.594,8.271,8.271,0,0,1-2.481-2.776c-.059-.177-.059-.414.118-.473a.319.319,0,0,1,.473.118,8.98,8.98,0,0,0,2.362,3.01,8.7,8.7,0,0,0,3.485,1.715" transform="translate(-1697.075 913.269)" fill="#fff"/>
    <path id="Path_621" data-name="Path 621" d="M51.707,23.917a9.588,9.588,0,0,1-6.2-3.071,12.969,12.969,0,0,1-1.949-2.717.345.345,0,1,1,.591-.355,11.641,11.641,0,0,0,2.3,3.426,8.925,8.925,0,0,0,5.257,2.717" transform="translate(-1694.804 912.123)" fill="#fff"/>
    <path id="Path_622" data-name="Path 622" d="M37.744,20.489a.334.334,0,0,1,.414.236,12.621,12.621,0,0,0,3.01,4.843,11.193,11.193,0,0,0,7.384,3.308,11.311,11.311,0,0,1-7.973-3.308,13.065,13.065,0,0,1-3.01-4.607.313.313,0,0,1,.177-.473" transform="translate(-1692.359 910.944)" fill="#fff"/>
    <path id="Path_623" data-name="Path 623" d="M57.917,15.059a3.467,3.467,0,0,0,1.949.591,2.4,2.4,0,0,0,2.541-1.95,2.787,2.787,0,0,1-2.776,2.481,4.116,4.116,0,0,1-2.067-.473.372.372,0,0,1-.177-.473c.177-.177.414-.3.532-.177" transform="translate(-1700.482 913.716)" fill="#fff"/>
  </g>
</svg>
