<svg id="Component_2_1" data-name="Component 2 – 1" xmlns="http://www.w3.org/2000/svg" width="100%" height="100%" viewBox="0 0 24 24">
  <rect id="Rectangle_8" data-name="Rectangle 8" width="24" height="24" fill="none"/>
  <path id="Icon_awesome-key" data-name="Icon awesome-key" d="M14.768,5.076a5.079,5.079,0,0,1-6.023,4.988l-.693.779a.692.692,0,0,1-.517.232H6.461V12.23a.692.692,0,0,1-.692.692H4.615v1.154a.692.692,0,0,1-.692.692H.692A.692.692,0,0,1,0,14.076V11.824a.692.692,0,0,1,.2-.49L4.87,6.668a5.077,5.077,0,1,1,9.9-1.591ZM8.861,4.522a1.384,1.384,0,1,0,1.384-1.384A1.384,1.384,0,0,0,8.861,4.522Z" transform="translate(4.616 4.616)" fill="none" stroke="#bdc2c5" stroke-linecap="round" stroke-linejoin="round" stroke-width="1.4"/>
</svg>
